<?xml version="1.0" standalone="no"?>
<!DOCTYPE svg PUBLIC "-//W3C//DTD SVG 20010904//EN"
 "http://www.w3.org/TR/2001/REC-SVG-20010904/DTD/svg10.dtd">
<svg version="1.0" xmlns="http://www.w3.org/2000/svg"
 width="260.000000pt" height="260.000000pt" viewBox="0 0 260.000000 260.000000"
 preserveAspectRatio="xMidYMid meet">
<metadata>
Created by potrace 1.14, written by Peter Selinger 2001-2017
</metadata>
<g transform="translate(0.000000,260.000000) scale(0.100000,-0.100000)"
fill="#000000" stroke="none">
<path d="M1098 2285 c-2 -1 -25 -5 -53 -9 -27 -3 -66 -10 -85 -16 -59 -17
-140 -62 -140 -78 0 -9 -3 -13 -6 -9 -3 3 -20 -8 -38 -24 -73 -71 -144 -78
-261 -26 -88 39 -132 51 -140 37 -3 -5 -12 -7 -20 -4 -31 12 -55 -89 -34 -141
7 -17 12 -33 11 -37 -1 -4 23 -33 53 -65 38 -40 57 -68 61 -93 9 -54 25 -90
46 -101 11 -6 22 -8 25 -5 4 3 13 -4 21 -15 23 -33 23 -142 0 -234 -34 -138
-11 -269 67 -385 l33 -49 -197 1 c-258 1 -352 -11 -357 -46 -3 -19 17 -19 96
0 47 11 492 6 503 -5 8 -8 4 -11 -14 -12 -183 -7 -312 -19 -325 -30 -6 -5 -13
-6 -16 -4 -10 10 -58 -15 -58 -30 0 -17 11 -18 60 -6 90 24 410 35 417 15 2
-7 -16 -12 -49 -13 -29 -1 -69 -4 -88 -6 -19 -2 -64 -6 -100 -9 -58 -6 -93
-11 -155 -23 -11 -2 -36 -6 -55 -9 -19 -3 -42 -10 -50 -14 -8 -4 -19 -9 -25
-10 -23 -4 -34 -16 -26 -28 6 -10 19 -9 67 2 55 14 82 20 159 31 129 19 369
36 393 27 16 -5 16 -18 0 -20 -119 -7 -288 -39 -288 -54 0 -4 -3 -7 -7 -7 -21
3 -33 -2 -33 -16 0 -19 2 -19 102 4 72 17 132 26 239 36 24 2 26 0 28 -47 4
-121 72 -225 158 -241 31 -7 53 -19 48 -27 -3 -5 -1 -11 5 -15 5 -3 10 -13 10
-21 0 -8 -4 -13 -9 -10 -5 4 -20 -11 -32 -31 -13 -21 -29 -44 -36 -51 -14 -14
-7 -42 10 -39 14 2 57 61 57 76 0 6 5 11 11 11 7 0 17 7 23 16 9 11 20 13 40
8 24 -6 27 -10 21 -33 -4 -14 -9 -41 -12 -59 -4 -28 -2 -33 13 -30 11 2 21 19
28 48 l11 45 92 2 c90 2 91 1 101 -25 6 -15 12 -36 14 -47 2 -11 10 -20 18
-20 16 0 18 22 6 73 -9 38 -9 37 21 46 16 5 29 -1 55 -27 18 -18 39 -45 47
-60 16 -30 36 -35 45 -12 3 8 2 15 -2 15 -4 0 -13 13 -20 28 -6 16 -26 43 -43
60 -25 26 -28 33 -15 38 8 3 18 13 21 23 3 9 17 18 32 19 73 6 144 96 158 197
12 94 12 93 47 90 105 -11 243 -36 290 -54 27 -10 38 -6 38 15 0 12 -66 38
-125 49 -84 15 -168 25 -175 20 -5 -3 -11 -1 -15 5 -4 6 -10 8 -15 5 -5 -3
-11 -1 -14 4 -9 14 26 22 75 17 24 -3 78 -8 119 -11 41 -3 100 -8 130 -11 30
-3 66 -7 80 -8 14 -2 39 -6 55 -9 17 -4 41 -9 55 -11 14 -3 36 -8 50 -11 70
-18 72 -18 68 0 -3 20 -53 40 -120 50 -24 4 -45 8 -48 10 -3 1 -39 6 -80 10
-41 4 -83 9 -93 11 -10 1 -59 6 -110 9 -97 6 -103 8 -93 24 10 15 313 1 396
-18 65 -15 79 -14 75 6 -1 10 -10 17 -19 17 -9 -1 -16 2 -16 7 0 5 -3 8 -7 7
-5 -1 -26 1 -48 5 -48 8 -156 18 -245 22 -87 4 -89 5 -62 16 13 5 112 9 220 9
194 -1 231 -2 325 -15 39 -6 47 -5 47 9 0 36 -101 50 -367 49 -101 0 -183 3
-183 7 0 4 8 18 18 31 78 108 109 259 75 383 -20 75 -26 181 -12 222 9 28 37
49 62 45 10 -2 34 55 41 99 3 23 18 46 44 70 56 52 89 115 91 175 2 68 -20 96
-77 97 -46 0 -102 -18 -102 -35 0 -6 -3 -8 -6 -4 -3 3 -27 -4 -52 -15 -68 -29
-133 -26 -185 11 -23 16 -53 40 -66 55 -13 14 -27 23 -31 21 -5 -3 -11 2 -14
11 -3 8 -10 12 -16 9 -5 -3 -10 -2 -10 3 0 15 -77 43 -158 57 -61 10 -464 19
-474 10z"/>
</g>
</svg>
